<?xml version="1.0" ?>

<!-- Uploaded to: SVG Repo, www.svgrepo.com, Generator: SVG Repo Mixer Tools -->
<svg width="800px" height="800px" viewBox="0 0 32 32" id="svg5" version="1.1" xmlns="http://www.w3.org/2000/svg" xmlns:svg="http://www.w3.org/2000/svg">

<defs id="defs2"/>

<g id="layer1" transform="translate(-60,-388)">

<path d="m 76,413.01367 a 1,1 0 0 0 -1,1 1,1 0 0 0 1,1 1,1 0 0 0 1,-1 1,1 0 0 0 -1,-1 z" id="path453599" style="color:#000000;fill:#000000;fill-rule:evenodd;stroke-linecap:round;stroke-linejoin:round;stroke-miterlimit:4.1;-inkscape-stroke:none"/>

<path d="m 86,403.01367 a 1,1 0 0 0 -1,1 1,1 0 0 0 1,1 1,1 0 0 0 1,-1 1,1 0 0 0 -1,-1 z" id="path453581" style="color:#000000;fill:#000000;fill-rule:evenodd;stroke-linecap:round;stroke-linejoin:round;stroke-miterlimit:4.1;-inkscape-stroke:none"/>

<path d="m 76,403.01367 a 1,1 0 0 0 -1,1 1,1 0 0 0 1,1 1,1 0 0 0 1,-1 1,1 0 0 0 -1,-1 z" id="path453579" style="color:#000000;fill:#000000;fill-rule:evenodd;stroke-linecap:round;stroke-linejoin:round;stroke-miterlimit:4.1;-inkscape-stroke:none"/>

<path d="m 66,403.01367 a 1,1 0 0 0 -1,1 1,1 0 0 0 1,1 1,1 0 0 0 1,-1 1,1 0 0 0 -1,-1 z" id="path453577" style="color:#000000;fill:#000000;fill-rule:evenodd;stroke-linecap:round;stroke-linejoin:round;stroke-miterlimit:4.1;-inkscape-stroke:none"/>

<path d="m 82.458984,396.65234 a 1.0001,1.0001 0 0 0 -0.453125,0.0625 l -9.193359,3.53711 a 1.0001,1.0001 0 0 0 -0.574219,0.57422 l -3.535156,9.19141 a 1.0001,1.0001 0 0 0 1.291016,1.29297 l 9.193359,-3.53516 a 1.0001,1.0001 0 0 0 0.574219,-0.57422 l 3.535156,-9.19336 a 1.0001,1.0001 0 0 0 -0.837891,-1.35547 z m -1.83789,2.73828 -2.566406,6.67774 -6.675782,2.56641 2.566406,-6.67579 z" id="path453571" style="color:#000000;fill:#000000;fill-rule:evenodd;stroke-linecap:round;stroke-linejoin:round;stroke-miterlimit:4.1;-inkscape-stroke:none"/>

<path d="m 76,393.01367 a 1,1 0 0 0 -1,1 1,1 0 0 0 1,1 1,1 0 0 0 1,-1 1,1 0 0 0 -1,-1 z" id="path453565" style="color:#000000;fill:#000000;fill-rule:evenodd;stroke-linecap:round;stroke-linejoin:round;stroke-miterlimit:4.1;-inkscape-stroke:none"/>

<path d="m 76,390.01367 c -7.720111,0 -14,6.27989 -14,14 0,7.72011 6.279889,14 14,14 7.720111,0 14,-6.27989 14,-14 0,-7.72011 -6.279889,-14 -14,-14 z m 0,2 c 6.639228,0 12,5.36078 12,12 0,6.63924 -5.360772,12 -12,12 -6.639228,0 -12,-5.36076 -12,-12 0,-6.63922 5.360772,-12 12,-12 z" id="path453553" style="color:#000000;fill:#000000;fill-rule:evenodd;stroke-linecap:round;stroke-linejoin:round;stroke-miterlimit:4.1;-inkscape-stroke:none"/>

</g>

</svg>