<svg xmlns="http://www.w3.org/2000/svg" xmlns:xlink="http://www.w3.org/1999/xlink" width="259" height="100" viewBox="0 0 259 100">
  <defs>
    <clipPath id="clip-path">
      <rect id="Rectangle_15778" data-name="Rectangle 15778" width="259" height="100" transform="translate(201 101)" fill="#fff"/>
    </clipPath>
  </defs>
  <g id="Dell-EMC-Logo-sized" transform="translate(-201 -101)" clip-path="url(#clip-path)">
    <g id="logo_dellemc" transform="translate(240.079 135.328)">
      <path id="Path_40358" data-name="Path 40358" d="M366.777,269.96H360.43v27.946h18.028v-5.552H366.777Z" transform="translate(-283.8 -268.064)"/>
      <path id="Path_40359" data-name="Path 40359" d="M219.222,294.912h18.028V289.36H225.569V266.97h-6.347v10.449l-15.155,11.841-3.389-2.648,7.258-5.672,7.9-6.172-4.513-3.524-15.155,11.841-3.389-2.648,15.155-11.841-4.509-3.524h0L187.62,277.422a13.977,13.977,0,0,0-13.527-10.456H162.78v27.946h11.313a13.984,13.984,0,0,0,13.527-10.456l15.807,12.352h0l15.8-12.345v10.449Zm-45.133-5.552h-4.982V272.522h4.982c4.211,0,7.626,3.768,7.626,8.421S178.3,289.36,174.089,289.36Z" transform="translate(-162.781 -265.07)"/>
      <path id="Path_40360" data-name="Path 40360" d="M508.171,269.96l-.4.4-10.379,24.352h-.4l-10.379-24.352-.4-.4h-2.791l-.4.4v27.147l.4.4h1.6l.4-.4V274.353h.4l9.98,23.154.4.4h2l.4-.4,9.98-23.154h.4v23.154l.4.4h1.6l.4-.4V270.359l-.4-.4Z" transform="translate(-358.861 -268.064)"/>
      <path id="Path_40361" data-name="Path 40361" d="M581.255,268.93c-6.789,0-12.775,4.792-12.775,14.368s5.986,14.372,12.775,14.372c5.587,0,9.976-2.791,10.774-8.774v-.008l-.4-.4h-1.6l-.4.4c-.795,4.389-3.59,6.785-8.382,6.785-5.986,0-10.379-4.393-10.379-12.376s4.389-12.376,10.379-12.376c4.792,0,7.587,2.392,8.382,6.385l.4.4h1.6l.4-.4V277.3C591.231,271.725,586.842,268.93,581.255,268.93Z" transform="translate(-411.188 -267.433)"/>
      <path id="Path_40362" data-name="Path 40362" d="M423.7,269.96l-.4.4v27.147l.4.4h17.164l.4-.4v-1.2l-.4-.4H426.1l-.4-.4V285.131l.4-.4h13.973l.4-.4v-1.2l-.4-.4H426.1l-.4-.4v-9.98l.4-.4h14.768l.4-.4v-1.2l-.4-.4Z" transform="translate(-322.295 -268.064)"/>
    </g>
  </g>
</svg>
