<?xml version="1.0" encoding="UTF-8" standalone="no"?>
<svg
   xmlns:svg="http://www.w3.org/2000/svg"
   xmlns="http://www.w3.org/2000/svg"
   version="1.0"
   width="400"
   height="126.95"
   id="DELL logotype ">
  <g
     transform="translate(-66.45031,-175.0199)"
     id="DELL (tm)">
    <path
       d="M 66.450309,181.95609 L 66.450309,296.64052 L
	  121.31569,296.64052 C 145.44292,296.64051 176.34172,281.26783
	  176.34172,239.23136 C 176.34172,193.26319 140.42564,181.95609
	  107.60604,181.95609 L 66.450309,181.95609 z M
	  106.99017,217.38161 C 106.99017,217.38161 114.05921,217.3816
	  114.05921,217.38161 C 125.14159,217.38161 134.58393,226.94032
	  134.73079,239.79367 C 134.73071,239.80211 134.73089,239.81202
	  134.73079,239.82045 C 134.58393,252.67381 126.1591,262.20574
	  115.07673,262.20574 C 115.07673,262.20574 106.99017,262.20574
	  106.99017,262.20574 L 106.99017,217.38161 z "
       style="fill:#0075ba;fill-opacity:1;fill-rule:evenodd;stroke:none"
       id="D" />
    <path
       d="M 306.2716,181.95609 L 306.2716,296.64685 L
	  382.21298,296.64685 L 382.21298,260.38313 L 346.45072,260.38313
	  L 346.45072,181.95609 L 306.2716,181.95609 z "
       style="fill:#0075ba;fill-opacity:1;fill-rule:evenodd;stroke:none"
       id="L1" />
    <path
       d="M 270.18746,199.36675 L 214.08846,234.73565 L
	  204.31627,228.16246 L 204.33825,228.1654 L 261.7189,191.62129 L
	  261.82636,191.69606 L 235.58804,175.01784 L 135.64871,238.57845
	  L 236.09737,301.972 L 335.33968,238.73485 L 306.60127,221.18799
	  L 249.39085,257.2327 L 239.77744,250.68504 L
	  295.38212,215.35937 L 270.18746,199.36675 z "
       style="fill:#0075ba;fill-opacity:1;fill-rule:evenodd;stroke:none"
       id="O" />
    <path
       d="M 389.43722,181.94577 L 389.43722,296.51341 L
	  465.3786,296.51341 L 465.3786,260.38313 L 429.61634,260.38313 L
	  429.61634,181.94577 L 389.43722,181.94577 z "
       style="fill:#0075ba;fill-opacity:1;fill-rule:evenodd"
       id="L2" />
    <path
       d="M 449.55061,181.764 L 456.30112,181.764 L
	  456.30112,183.36953 L 453.81986,183.36953 L 453.81986,190.63089
	  L 452.03188,190.63089 L 452.03188,183.36953 L
	  449.55061,183.36953 L 449.55061,181.764 z "
       style="fill:#0075ba;fill-opacity:1;fill-rule:evenodd;stroke:none"
       id="T" />
    <path
       d="M 461.01401,189.58571 L 458.85049,184.2252 L
	  458.85049,190.5528 L 457.18534,190.5528 L 457.18534,181.76948 L
	  459.92795,181.76948 L 461.81783,187.11475 L 463.70769,181.76948
	  L 466.45031,181.76948 L 466.45031,190.5528 L 464.78515,190.5528
	  L 464.78515,184.2252 L 462.62164,189.58571 L
	  461.01401,189.58571 z "
       style="fill:#0075ba;fill-opacity:1;fill-rule:evenodd;stroke:none"
       id="M" />
  </g>
</svg>
