<?xml version="1.0" encoding="UTF-8"?>
<!-- Uploaded to: SVG Repo, www.svgrepo.com, Generator: SVG Repo Mixer Tools -->
<svg fill="#000000" width="800px" height="800px" version="1.1" viewBox="144 144 512 512" xmlns="http://www.w3.org/2000/svg">
 <g>
  <path d="m616.42 554.1h-432.85c-5.4258 0-9.8398-4.4141-9.8398-9.8398v-288.52c0-5.4258 4.4141-9.8398 9.8398-9.8398h432.85c5.4258 0 9.8398 4.4141 9.8398 9.8398v288.52c-0.003906 5.4219-4.418 9.8398-9.8438 9.8398zm-432.85-298.36v288.52h432.84l0.015625-288.52z"/>
  <path d="m330.81 514.32c-63.035 0-114.32-51.281-114.32-114.32s51.281-114.32 114.32-114.32 114.32 51.281 114.32 114.32c0 63.031-51.285 114.32-114.32 114.32zm0-218.79c-57.609 0-104.48 46.867-104.48 104.48s46.867 104.48 104.48 104.48 104.48-46.867 104.48-104.48c0.003907-57.609-46.867-104.48-104.48-104.48z"/>
  <path d="m330.81 492.44c-50.969 0-92.438-41.469-92.438-92.438s41.469-92.438 92.438-92.438 92.438 41.469 92.438 92.438c0.003906 50.969-41.465 92.438-92.438 92.438zm0-175.04c-45.543 0-82.598 37.055-82.598 82.598s37.055 82.598 82.598 82.598 82.598-37.051 82.598-82.598c0.003906-45.547-37.051-82.598-82.598-82.598z"/>
  <path d="m330.81 470.84c-39.062 0-70.844-31.781-70.844-70.844s31.781-70.844 70.844-70.844 70.844 31.781 70.844 70.844c0.003906 39.062-31.777 70.844-70.844 70.844zm0-131.85c-33.637 0-61.004 27.367-61.004 61.004s27.367 61.004 61.004 61.004 61.004-27.367 61.004-61.004c0.003906-33.637-27.363-61.004-61.004-61.004z"/>
  <path d="m330.81 449.42c-27.254 0-49.422-22.172-49.422-49.426s22.172-49.422 49.422-49.422c27.254 0 49.426 22.172 49.426 49.422 0 27.254-22.172 49.426-49.426 49.426zm0-89.008c-21.824 0-39.582 17.758-39.582 39.582 0 21.828 17.758 39.586 39.582 39.586 21.828 0 39.586-17.758 39.586-39.586 0-21.824-17.758-39.582-39.586-39.582z"/>
  <path d="m330.81 428.48c-15.703 0-28.477-12.773-28.477-28.48 0-15.703 12.773-28.48 28.477-28.48s28.48 12.773 28.48 28.48c0 15.707-12.773 28.48-28.48 28.48zm0-47.117c-10.277 0-18.637 8.3633-18.637 18.641s8.3594 18.641 18.637 18.641 18.641-8.3594 18.641-18.641-8.3594-18.641-18.641-18.641z"/>
  <path d="m440.21 514.32c-1.2578 0-2.5195-0.48047-3.4766-1.4414l-218.8-218.79c-1.9219-1.9219-1.9219-5.0391 0-6.957 1.9219-1.9219 5.0352-1.9219 6.957 0l218.79 218.79c1.9219 1.9219 1.9219 5.0352 0 6.957-0.95703 0.96094-2.2188 1.4414-3.4766 1.4414z"/>
  <path d="m221.42 514.32c-1.2578 0-2.5195-0.48047-3.4805-1.4414-1.9219-1.9219-1.9219-5.0352 0-6.957l218.79-218.8c1.918-1.9219 5.0391-1.9219 6.957 0 1.9219 1.9219 1.9219 5.0391 0 6.957l-218.79 218.8c-0.96094 0.96094-2.2188 1.4414-3.4805 1.4414z"/>
  <path d="m481.71 554.1c-2.7188 0-4.9219-2.2031-4.9219-4.9219v-298.36c0-2.7188 2.2031-4.9219 4.9219-4.9219s4.9219 2.2031 4.9219 4.9219v298.36c-0.003907 2.7188-2.207 4.9219-4.9219 4.9219z"/>
  <path d="m565.13 352.66h-27.207c-20.715 0-37.57-11.977-37.57-26.695v-29.031c0-2.7188 2.2031-4.9219 4.9219-4.9219h92.508c2.7188 0 4.9219 2.2031 4.9219 4.9219v29.031c-0.007812 14.723-16.859 26.695-37.574 26.695zm-54.938-50.809v24.113c0 9.1367 12.699 16.855 27.73 16.855h27.207c15.031 0 27.73-7.7188 27.73-16.855v-24.113z"/>
  <path d="m588.77 404.92h-74.473c-2.7188 0-4.9219-2.2031-4.9219-4.9219s2.2031-4.9219 4.9219-4.9219h74.473c2.7188 0 4.9219 2.2031 4.9219 4.9219-0.003906 2.7188-2.207 4.9219-4.9219 4.9219z"/>
  <path d="m588.77 449.42h-74.473c-2.7188 0-4.9219-2.2031-4.9219-4.9219s2.2031-4.9219 4.9219-4.9219h74.473c2.7188 0 4.9219 2.2031 4.9219 4.9219-0.003906 2.7227-2.207 4.9219-4.9219 4.9219z"/>
  <path d="m588.77 493.09h-74.473c-2.7188 0-4.9219-2.2031-4.9219-4.9219s2.2031-4.9219 4.9219-4.9219h74.473c2.7188 0 4.9219 2.2031 4.9219 4.9219-0.003906 2.7227-2.207 4.9219-4.9219 4.9219z"/>
  <path d="m529.61 334.73c-2.7188 0-4.9219-2.2031-4.9219-4.9219v-19.555c0-2.7188 2.2031-4.9219 4.9219-4.9219s4.9219 2.2031 4.9219 4.9219v19.555c0 2.7188-2.2031 4.9219-4.9219 4.9219z"/>
  <path d="m573.44 334.73c-2.7188 0-4.9219-2.2031-4.9219-4.9219v-19.555c0-2.7188 2.2031-4.9219 4.9219-4.9219s4.9219 2.2031 4.9219 4.9219v19.555c0 2.7188-2.2031 4.9219-4.9219 4.9219z"/>
 </g>
</svg>