<svg xmlns="http://www.w3.org/2000/svg" height="800" width="1200" version="1.0" viewBox="-12.194055 -10.2962 105.68181 61.7772"><path d="M23.7563 18.3955c-.2313 2.5793 2.7124 3.8555 7.0374 3.8555 6.2588 0 12.665-2.514 14.4312-3.2507l.3976.3571c-1.4937.8765-9.975 5.0487-17.3075 5.0487-5.0887 0-5.9562-2.1453-5.9562-3.479 0-1.2548.5987-2.1996.9538-2.6512-1.57-.3943-2.7664-1.4972-2.7664-3.1861 0-2.2394 2.0313-4.2566 2.7501-4.8242l.3075.252c-.36.442-.8926 1.4355-.8926 2.397 0 2.5012 3.2413 3.5845 7.1639 3.5845 4.5999 0 9.365-1.3824 10.5349-1.8054l.3688.332c-1.1139.4786-8.0076 3.6254-14.5488 3.6254-.9175 0-1.9688-.13-2.4737-.2556M51.83 6.0163c.2287-2.5812-2.7125-3.8586-7.0375-3.8586-6.2588 0-12.665 2.5134-14.4287 3.2513l-.4-.3582C31.4612 4.1768 39.9362 0 47.27 0c5.0913 0 5.9613 2.1467 5.9613 3.4828 0 1.2542-.6 2.1979-.96 2.6483 1.5737.396 2.765 1.5033 2.765 3.189 0 2.2365-2.0288 4.256-2.7463 4.825l-.3112-.2565c.3625-.4363.895-1.4312.895-2.395 0-2.5-3.2376-3.587-7.1625-3.587-4.6025 0-9.3688 1.3854-10.5351 1.8084l-.37-.3307c1.1139-.4785 8.0088-3.628 14.55-3.628.9213 0 1.9713.1331 2.4738.26M12.6325 35.1636h-1.9163l-1.1137 5.849H7.7863l1.1299-5.849H7.0125l.29-1.5752H12.92l-.2874 1.5752m6.4349 1.6798c0 1.3195-.8812 2.7136-2.2687 2.7136-.8763 0-1.5813-.5591-1.5813-1.7597 0-1.4959 1.0088-2.7306 2.2063-2.7306 1.0775 0 1.6437.7287 1.6437 1.7767M21 36.5991c0-1.7662-1.1413-3.1383-3.3712-3.1383-2.64 0-4.315 2.1583-4.315 4.6343 0 1.6822 1.1325 3.064 3.3612 3.064 2.2737 0 4.325-1.9207 4.325-4.56M5.7363 33.5633c-.0776-.0263-.6575-.2251-1.4226-.2251-.9324 0-1.4574.4535-1.4574 1.0796 0 .5414.5137.9309 1.0863 1.3922.845.686 1.6686 1.4569 1.6686 2.6679 0 1.5197-1.16 2.707-3.605 2.707-1.0375 0-1.8412-.1826-2.0062-.2077l.3212-1.72c.105.0428.8039.3486 1.7063.3486.8863 0 1.5113-.4444 1.5113-1.1065 0-.6318-.6126-1.0706-1.2488-1.5833-.7988-.6452-1.495-1.3276-1.495-2.4432 0-1.6029 1.2325-2.6831 3.4013-2.6831.9625 0 1.705.1257 1.8462.1477l-.3062 1.6259m18.9112 3.7658l1.865 3.6823h2.0388l-1.7-3.042c.7087-.2465 1.9199-.777 1.9199-2.3705 0-.8496-.5987-2.063-2.7062-2.063-.82 0-2.35.041-2.5463.042l-1.4162 7.4348h1.805l1.1563-6.0383c.1625-.0152.5024-.0293.7612-.0293.6663 0 .985.3553.985.9035 0 .866-.9762 1.4824-2.1625 1.4805m9.9575 1.0499h-1.93l1.4975-2.8167h.0675l.365 2.8167m2.3313 2.6336l-1.2126-7.4224h-2.2449l-4.1838 7.4224h2.0163l.6987-1.3067h2.78l.2025 1.3067h1.9438M52.98 35.022h-2.69l-.2825 1.474H52.55l-.255 1.407h-2.5612l-.2975 1.6363h2.6712l-.27 1.4679h-4.4887l1.415-7.4255H53.25l-.27 1.4403m13.085 0h-2.6837l-.285 1.474h2.5462l-.26 1.407H62.825l-.3012 1.6363h2.6737l-.2725 1.4679h-4.49l1.4176-7.4255h4.49l-.2775 1.4403m-4.9777-1.4367H58.485l-1.42 7.4274h-1.8963l1.4126-7.4274h-2.6038l.3-1.5796h7.1l-.29 1.5796m8.9787 3.5651l3.2251-3.5602h2.3012l-3.4625 3.64 2.0925 3.7824h-2.2338l-1.9225-3.8622m-.7625 3.8622h-1.8024l1.4162-7.4224H70.72l-1.4163 7.4224M45.41 35.439c-.1738-.0727-.9238-.4456-2.0974-.4456-1.5513 0-2.7326 1.2787-2.7326 2.9186 0 .9473.725 1.6273 1.6538 1.6273.475 0 .7774-.0934.9037-.1325l.445-2.3412h1.805l-.6737 3.5454c-.39.1294-1.1738.531-2.7262.531-2.0276 0-3.3864-1.3812-3.3864-3.0852 0-2.7235 2.115-4.6082 4.73-4.6082 1.25 0 2.1089.243 2.3963.3272l-.3175 1.6631m35.5488-.7359l-.0875-1.321c-.0125-.1696 0-.379-.0075-.5938h-.0175c-.0526.2032-.1188.4346-.185.6275l-.4575 1.2603h-.2513l-.4487-1.294c-.0525-.1764-.1075-.3906-.1588-.5938h-.0163c-.005.2074 0 .396-.0112.5938l-.0813 1.321h-.3187l.1675-2.1895h.4363l.4312 1.1878c.0526.1654.0975.3466.1538.5498h.0087c.05-.2032.1-.3954.155-.5547l.43-1.1828h.4275l.1663 2.1893zm-2.12-2.1895v.2796h-.67v1.9098h-.3326v-1.9098h-.665v-.2796h1.6675"/></svg>